# File created by Blade
# Date/Time:  Wed Jan 21 17:57:21 2015
#---------------------------------------------------------
:version 1.10
:name HOM
:units
  mass 1.0
  length 1.000000
  angle deg
:documentation
     Acclaim Skeleton File
:root
   axis xyz
   order TX TY TZ RX RY RZ
   position 0.000000 0.000000 0.000000
   orientation 0 0 0
:bonedata
   begin
      id 1
      name Spine_dum
      direction 0.000000 1.000000 0.000000
      length 7.067664
      axis 0.0 0.0 0.0 xyz
   end
   begin
      id 2
      name LeftUpLeg_dum
      direction 1.000000 0.000000 0.000000
      length 4.013002
      axis 0.0 0.0 0.0 xyz
   end
   begin
      id 3
      name RightUpLeg_dum
      direction -1.000000 0.000000 0.000000
      length 4.013002
      axis 0.0 0.0 0.0 xyz
   end
   begin
      id 4
      name Spine
      direction 0.000000 1.000000 0.000000
      length 0.000000
      axis 0.0 0.0 0.0 xyz
      dof rx ry rz
   end
   begin
      id 5
      name Spine_dum1
      direction 0.000000 1.000000 0.000000
      length 15.039886
      axis 0.0 0.0 0.0 xyz
   end
   begin
      id 6
      name Spine_dum2
      direction 0.000000 1.000000 0.000000
      length 10.530368
      axis 0.0 0.0 0.0 xyz
   end
   begin
      id 7
      name Spine_dum3
      direction 0.000000 1.000000 0.000000
      length 10.530368
      axis 0.0 0.0 0.0 xyz
   end
   begin
      id 8
      name Head
      direction 0.000000 1.000000 0.000000
      length 4.527550
      axis 0.0 0.0 0.0 xyz
      dof rx ry rz
   end
   begin
      id 9
      name LeftShoulder
      direction 1.000000 0.000000 0.000000
      length 7.028855
      axis 0.0 0.0 -90.0 xyz
      dof rx ry rz
   end
   begin
      id 10
      name LeftArm
      direction 1.000000 0.000000 0.000000
      length 10.797705
      axis 0.0 0.0 -90.0 xyz
      dof rx ry rz
   end
   begin
      id 11
      name LeftForeArm
      direction 1.000000 0.000000 0.000000
      length 7.907442
      axis 0.0 0.0 -90.0 xyz
      dof ry rz rx
   end
   begin
      id 12
      name LeftHand
      direction 0.000000 0.000000 0.000000
      length 0.000000
      axis 0.0 0.0 -90.0 xyz
      dof rx ry rz
   end
   begin
      id 13
      name LeftHand_dum1
      direction 0.000000 0.000000 0.000000
      length 0.000000
      axis 0.0 0.0 -90.0 xyz
   end
   begin
      id 14
      name LeftHand_dum2
      direction 1.000000 0.000000 0.000000
      length 3.937000
      axis 0.0 0.0 -90.0 xyz
   end
   begin
      id 15
      name LeftHandThumb1
      direction 0.000000 0.000000 1.000000
      length 3.937000
      axis 0.0 0.0 -90.0 xyz
      dof rx rz ry
   end
   begin
      id 16
      name RightShoulder
      direction -1.000000 0.000000 0.000000
      length 7.028855
      axis 0.0 0.0 90.0 xyz
      dof rx ry rz
   end
   begin
      id 17
      name RightArm
      direction -1.000000 0.000000 0.000000
      length 10.797705
      axis 0.0 0.0 90.0 xyz
      dof rx ry rz
   end
   begin
      id 18
      name RightForeArm
      direction -1.000000 0.000000 0.000000
      length 7.907442
      axis 0.0 0.0 90.0 xyz
      dof ry rz rx
   end
   begin
      id 19
      name RightHand
      direction 0.000000 0.000000 0.000000
      length 0.000000
      axis 0.0 0.0 90.0 xyz
      dof rx ry rz
   end
   begin
      id 20
      name RightHand_dum1
      direction 0.000000 0.000000 0.000000
      length 0.000000
      axis 0.0 0.0 90.0 xyz
   end
   begin
      id 21
      name RightHand_dum2
      direction -1.000000 0.000000 0.000000
      length 3.937000
      axis 0.0 0.0 90.0 xyz
   end
   begin
      id 22
      name RightHandThumb1
      direction 0.000000 0.000000 1.000000
      length 3.937000
      axis 0.0 0.0 90.0 xyz
      dof rx rz ry
   end
   begin
      id 23
      name LeftUpLeg
      direction 0.000000 -1.000000 0.000000
      length 16.899758
      axis 0.0 0.0 0.0 xyz
      dof rx ry rz
   end
   begin
      id 24
      name LeftLeg
      direction 0.000000 -1.000000 0.000000
      length 17.389183
      axis 0.0 0.0 0.0 xyz
      dof rx ry rz
   end
   begin
      id 25
      name LeftFoot
      direction 0.000000 -0.258819 0.965926
      length 4.924528
      axis 15.0 0.0 0.0 xyz
      dof rx ry rz
   end
   begin
      id 26
      name LeftToeBase
      direction 0.000000 0.000000 1.000000
      length 2.952750
      axis 0.0 0.0 0.0 xyz
      dof rx ry rz
   end
   begin
      id 27
      name RightUpLeg
      direction 0.000000 -1.000000 0.000000
      length 16.899758
      axis 0.0 0.0 0.0 xyz
      dof rx ry rz
   end
   begin
      id 28
      name RightLeg
      direction 0.000000 -1.000000 0.000000
      length 17.389183
      axis 0.0 0.0 0.0 xyz
      dof rx ry rz
   end
   begin
      id 29
      name RightFoot
      direction 0.000000 -0.258819 0.965926
      length 4.924528
      axis 15.0 0.0 0.0 xyz
      dof rx ry rz
   end
   begin
      id 30
      name RightToeBase
      direction 0.000000 0.000000 1.000000
      length 2.952750
      axis 0.0 0.0 0.0 xyz
      dof rx ry rz
   end
:hierarchy
   begin
      root Spine_dum LeftUpLeg_dum RightUpLeg_dum
      Spine_dum Spine
      LeftUpLeg_dum LeftUpLeg
      RightUpLeg_dum RightUpLeg
      Spine Spine_dum1 Spine_dum2 Spine_dum3
      Spine_dum1 Head
      Spine_dum2 LeftShoulder
      Spine_dum3 RightShoulder
      LeftShoulder LeftArm
      LeftArm LeftForeArm
      LeftForeArm LeftHand
      LeftHand LeftHand_dum1 LeftHand_dum2
      LeftHand_dum1 LeftHandThumb1
      RightShoulder RightArm
      RightArm RightForeArm
      RightForeArm RightHand
      RightHand RightHand_dum1 RightHand_dum2
      RightHand_dum1 RightHandThumb1
      LeftUpLeg LeftLeg
      LeftLeg LeftFoot
      LeftFoot LeftToeBase
      RightUpLeg RightLeg
      RightLeg RightFoot
      RightFoot RightToeBase
   end

# File created by Blade
# Date/Time:  Wed Jan 21 17:57:11 2015
# Frame Rate: 120.000 fps
#------------------------------------------------------
:FULLY-SPECIFIED
:DEGREES
1
root 18.765502 35.638452 -24.186122 -174.105019 -0.853978 -179.760434
Spine -19.276591 1.028561 -1.025304
Head 132.970381 1.914159 178.995087
LeftShoulder -7.807903 -29.025624 18.214847
LeftArm 3.761278 -0.756290 -2.751579
LeftForeArm 6.128270 0.000000 -3.779616
LeftHand -10.677565 -0.000000 -5.974754
LeftHandThumb1 -26.253704 0.000000 33.147579
RightShoulder -9.463112 -7.612064 -12.058635
RightArm -2.088743 42.897500 3.212524
RightForeArm -34.889750 -0.000000 5.477054
RightHand -4.099504 -0.000000 13.441046
RightHandThumb1 -24.326973 -0.000000 -32.862282
LeftUpLeg 3.932095 6.610788 0.360802
LeftLeg -5.708991 -0.000000 0.000000
LeftFoot -19.279648 25.239923 -15.152798
LeftToeBase 21.754731 -0.000000 -0.000000
RightUpLeg 3.605877 -7.422602 -0.102875
RightLeg -3.710776 -0.000000 0.000000
RightFoot -21.773566 -23.754893 19.102154
RightToeBase 22.131552 -0.000000 -0.000000
2
root 18.763956 35.638152 -24.187693 -174.121129 -0.854474 -179.755826
Spine -19.261232 1.028712 -1.001406
Head 132.926016 1.817967 179.008159
LeftShoulder -7.839043 -29.006660 18.207629
LeftArm 3.798963 -0.745503 -2.733938
LeftForeArm 6.142256 -0.000000 -3.789997
LeftHand -10.665314 -0.000000 -5.979547
LeftHandThumb1 -26.253704 0.000000 33.147579
RightShoulder -9.473378 -7.599411 -12.058960
RightArm -2.077369 42.862839 3.194543
RightForeArm -34.881726 0.000000 5.478272
RightHand -4.093484 0.000000 13.468226
RightHandThumb1 -24.326973 -0.000000 -32.862282
LeftUpLeg 3.950757 6.643554 0.362327
LeftLeg -5.712240 -0.000000 0.000000
LeftFoot -19.273455 25.227192 -15.131759
LeftToeBase 21.760867 -0.000000 -0.000000
RightUpLeg 3.617423 -7.410459 -0.102092
RightLeg -3.698423 -0.000000 0.000000
RightFoot -21.786194 -23.763244 19.107976
RightToeBase 22.097353 -0.000000 -0.000000
3
root 18.761385 35.637585 -24.189389 -174.130787 -0.852647 -179.752994
Spine -19.255935 1.046238 -0.979152
Head 132.903087 1.629665 179.121875
LeftShoulder -7.838393 -29.015202 18.188931
LeftArm 3.808877 -0.689316 -2.712036
LeftForeArm 6.121927 -0.000000 -3.784166
LeftHand -10.656453 -0.000000 -5.958731
LeftHandThumb1 -26.253704 0.000000 33.147579
RightShoulder -9.482295 -7.575295 -12.092038
RightArm -2.090123 42.874549 3.198168
RightForeArm -34.923881 -0.000000 5.496019
RightHand -4.108215 -0.000000 13.463017
RightHandThumb1 -24.326973 -0.000000 -32.862282
LeftUpLeg 3.958803 6.640734 0.362023
LeftLeg -5.701473 -0.000000 0.000000
LeftFoot -19.289823 25.233692 -15.119339
LeftToeBase 21.740651 -0.000000 -0.000000
RightUpLeg 3.623785 -7.403103 -0.103579
RightLeg -3.685922 -0.000000 0.000000
RightFoot -21.791837 -23.772220 19.108886
RightToeBase 22.139768 -0.000000 -0.000000
4
root 18.759397 35.637923 -24.189330 -174.140521 -0.855789 -179.759413
Spine -19.246431 1.044171 -0.975867
Head 132.850074 1.799950 178.953566
LeftShoulder -7.848379 -29.015897 18.176730
LeftArm 3.831253 -0.662139 -2.677626
LeftForeArm 6.140615 -0.000000 -3.778767
LeftHand -10.668761 -0.000000 -5.951634
LeftHandThumb1 -26.253704 0.000000 33.147579
RightShoulder -9.496242 -7.582757 -12.076564
RightArm -2.079147 42.893731 3.175946
RightForeArm -34.924112 -0.000000 5.508119
RightHand -4.116780 -0.000000 13.489537
RightHandThumb1 -24.326973 -0.000000 -32.862282
LeftUpLeg 3.958688 6.600049 0.355470
LeftLeg -5.682601 -0.000000 0.000000
LeftFoot -19.307089 25.250256 -15.154536
LeftToeBase 21.759267 -0.000000 -0.000000
RightUpLeg 3.626410 -7.391976 -0.113110
RightLeg -3.672196 -0.000000 0.000000
RightFoot -21.811500 -23.788039 19.128617
RightToeBase 22.106860 -0.000000 -0.000000
5
root 18.756896 35.637411 -24.191737 -174.156199 -0.853108 -179.755587
Spine -19.234158 1.050548 -0.950286
Head 132.824586 1.614276 179.061181
LeftShoulder -7.865498 -29.008153 18.170596
LeftArm 3.849356 -0.655448 -2.657226
LeftForeArm 6.143533 -0.000000 -3.783605
LeftHand -10.682052 -0.000000 -5.932274
LeftHandThumb1 -26.253704 0.000000 33.147579
RightShoulder -9.514520 -7.587414 -12.088864
RightArm -2.053823 42.970328 3.181373
RightForeArm -35.006777 -0.000000 5.522074
RightHand -4.139170 -0.000000 13.480234
RightHandThumb1 -24.326973 -0.000000 -32.862282
LeftUpLeg 3.980585 6.642210 0.356026
LeftLeg -5.688083 -0.000000 0.000000
LeftFoot -19.296893 25.227411 -15.118942
LeftToeBase 21.751443 -0.000000 -0.000000
RightUpLeg 3.646711 -7.395826 -0.116128
RightLeg -3.673622 -0.000000 0.000000
RightFoot -21.808337 -23.781679 19.097933
RightToeBase 22.168904 -0.000000 -0.000000
6
root 18.755010 35.637582 -24.192214 -174.163020 -0.853691 -179.762236
Spine -19.227640 1.044779 -0.947751
Head 132.770104 1.732147 178.920268
LeftShoulder -7.889202 -28.986548 18.173660
LeftArm 3.878289 -0.627165 -2.639783
LeftForeArm 6.101184 -0.000000 -3.788662
LeftHand -10.671481 -0.000000 -5.860193
LeftHandThumb1 -26.253704 0.000000 33.147579
RightShoulder -9.521955 -7.567483 -12.079040
RightArm -2.037571 42.939529 3.158490
RightForeArm -35.002818 -0.000000 5.513872
RightHand -4.138271 -0.000000 13.472856
RightHandThumb1 -24.326973 -0.000000 -32.862282
LeftUpLeg 3.980756 6.604885 0.349250
LeftLeg -5.670422 -0.000000 0.000000
LeftFoot -19.310782 25.245427 -15.138602
LeftToeBase 21.773116 -0.000000 -0.000000
RightUpLeg 3.645619 -7.401479 -0.124336
RightLeg -3.659330 -0.000000 0.000000
RightFoot -21.806616 -23.783517 19.103980
RightToeBase 22.061690 -0.000000 -0.000000
7
root 18.753438 35.637818 -24.192265 -174.171384 -0.850703 -179.758847
Spine -19.217251 1.043282 -0.932354
Head 132.725038 1.776280 178.856937
LeftShoulder -7.906437 -29.007292 18.188339
LeftArm 3.884071 -0.569108 -2.627671
LeftForeArm 6.075082 -0.000000 -3.776499
LeftHand -10.710984 -0.000000 -5.911790
LeftHandThumb1 -26.253704 0.000000 33.147579
RightShoulder -9.531395 -7.543757 -12.069439
RightArm -2.014217 42.890290 3.137073
RightForeArm -35.003154 -0.000000 5.513349
RightHand -4.158928 -0.000000 13.473498
RightHandThumb1 -24.326973 -0.000000 -32.862282
LeftUpLeg 3.986286 6.615803 0.351124
LeftLeg -5.665627 -0.000000 0.000000
LeftFoot -19.314213 25.242256 -15.137025
LeftToeBase 21.769443 -0.000000 -0.000000
RightUpLeg 3.646687 -7.381352 -0.122567
RightLeg -3.646380 -0.000000 0.000000
RightFoot -21.825944 -23.807691 19.118916
RightToeBase 22.117604 -0.000000 -0.000000
